<?xml version="1.0" encoding="us-ascii" standalone="no"?><svg xmlns="http://www.w3.org/2000/svg" xmlns:xlink="http://www.w3.org/1999/xlink" contentStyleType="text/css" height="229px" preserveAspectRatio="none" style="width:767px;height:229px;background:#FFFFFF;" version="1.1" viewBox="0 0 767 229" width="767px" zoomAndPan="magnify"><defs/><g><!--cluster document--><g id="cluster_document"><path d="M8.5,6 L192.5,6 A3.75,3.75 0 0 1 195,8.5 L202,29.6094 L757.5,29.6094 A2.5,2.5 0 0 1 760,32.1094 L760,219.5 A2.5,2.5 0 0 1 757.5,222 L8.5,222 A2.5,2.5 0 0 1 6,219.5 L6,8.5 A2.5,2.5 0 0 1 8.5,6 " fill="none" style="stroke:#000000;stroke-width:1.5;"/><line style="stroke:#000000;stroke-width:1.5;" x1="6" x2="202" y1="29.6094" y2="29.6094"/><text fill="#000000" font-family="sans-serif" font-size="14" font-weight="bold" lengthAdjust="spacing" textLength="183" x="10" y="22.5332">MedComDocumentBundle</text></g><!--class composition--><g id="elem_composition"><rect codeLine="5" fill="#F1F1F1" height="32" id="composition" rx="2.5" ry="2.5" style="stroke:#181818;stroke-width:0.5;" width="230" x="190" y="47.5"/><ellipse cx="205" cy="63.5" fill="#ADD1B2" rx="11" ry="11" style="stroke:#181818;stroke-width:1.0;"/><path d="M207.7656,59.375 Q207.9219,59.1563 208.1094,59.0469 Q208.2969,58.9375 208.5156,58.9375 Q208.8906,58.9375 209.125,59.2031 Q209.3594,59.4531 209.3594,60.0625 L209.3594,61.5156 Q209.3594,62.125 209.125,62.3906 Q208.8906,62.6563 208.5156,62.6563 Q208.1719,62.6563 207.9688,62.4531 Q207.7656,62.2656 207.6563,61.75 Q207.6094,61.3906 207.4219,61.2031 Q207.0938,60.8281 206.4844,60.6094 Q205.875,60.3906 205.25,60.3906 Q204.4844,60.3906 203.8438,60.7188 Q203.2188,61.0469 202.7188,61.7969 Q202.2344,62.5469 202.2344,63.5781 L202.2344,64.6719 Q202.2344,65.9063 203.125,66.7344 Q204.0156,67.5469 205.6094,67.5469 Q206.5469,67.5469 207.2031,67.2969 Q207.5938,67.1406 208.0156,66.7031 Q208.2813,66.4375 208.4219,66.3594 Q208.5781,66.2813 208.7813,66.2813 Q209.1094,66.2813 209.3594,66.5469 Q209.625,66.7969 209.625,67.1406 Q209.625,67.4844 209.2813,67.8906 Q208.7813,68.4688 207.9844,68.7969 Q206.9063,69.25 205.6094,69.25 Q204.0938,69.25 202.8906,68.625 Q201.9063,68.125 201.2188,67.0625 Q200.5313,65.9844 200.5313,64.7031 L200.5313,63.5469 Q200.5313,62.2188 201.1406,61.0781 Q201.7656,59.9219 202.8594,59.3125 Q203.9531,58.6875 205.1875,58.6875 Q205.9219,58.6875 206.5625,58.8594 Q207.2188,59.0156 207.7656,59.375 Z " fill="#000000"/><text fill="#000000" font-family="sans-serif" font-size="14" lengthAdjust="spacing" textLength="198" x="219" y="69.2285">MedComDocumentComposition</text></g><!--class organization--><g id="elem_organization"><rect codeLine="6" fill="#F1F1F1" height="42.7031" id="organization" rx="2.5" ry="2.5" style="stroke:#181818;stroke-width:0.5;" width="232" x="22" y="163"/><ellipse cx="37" cy="184.3516" fill="#ADD1B2" rx="11" ry="11" style="stroke:#181818;stroke-width:1.0;"/><path d="M39.7656,180.2266 Q39.9219,180.0078 40.1094,179.8984 Q40.2969,179.7891 40.5156,179.7891 Q40.8906,179.7891 41.125,180.0547 Q41.3594,180.3047 41.3594,180.9141 L41.3594,182.3672 Q41.3594,182.9766 41.125,183.2422 Q40.8906,183.5078 40.5156,183.5078 Q40.1719,183.5078 39.9688,183.3047 Q39.7656,183.1172 39.6563,182.6016 Q39.6094,182.2422 39.4219,182.0547 Q39.0938,181.6797 38.4844,181.4609 Q37.875,181.2422 37.25,181.2422 Q36.4844,181.2422 35.8438,181.5703 Q35.2188,181.8984 34.7188,182.6484 Q34.2344,183.3984 34.2344,184.4297 L34.2344,185.5234 Q34.2344,186.7578 35.125,187.5859 Q36.0156,188.3984 37.6094,188.3984 Q38.5469,188.3984 39.2031,188.1484 Q39.5938,187.9922 40.0156,187.5547 Q40.2813,187.2891 40.4219,187.2109 Q40.5781,187.1328 40.7813,187.1328 Q41.1094,187.1328 41.3594,187.3984 Q41.625,187.6484 41.625,187.9922 Q41.625,188.3359 41.2813,188.7422 Q40.7813,189.3203 39.9844,189.6484 Q38.9063,190.1016 37.6094,190.1016 Q36.0938,190.1016 34.8906,189.4766 Q33.9063,188.9766 33.2188,187.9141 Q32.5313,186.8359 32.5313,185.5547 L32.5313,184.3984 Q32.5313,183.0703 33.1406,181.9297 Q33.7656,180.7734 34.8594,180.1641 Q35.9531,179.5391 37.1875,179.5391 Q37.9219,179.5391 38.5625,179.7109 Q39.2188,179.8672 39.7656,180.2266 Z " fill="#000000"/><text fill="#000000" font-family="sans-serif" font-size="12" font-style="italic" lengthAdjust="spacing" textLength="162" x="70" y="180.457">&#171;MedComCoreOrganization&#187;</text><text fill="#000000" font-family="sans-serif" font-size="14" lengthAdjust="spacing" textLength="200" x="51" y="197.627">MedComDocumentOrganization</text></g><!--class practitioner--><g id="elem_practitioner"><rect codeLine="7" fill="#F1F1F1" height="42.7031" id="practitioner" rx="2.5" ry="2.5" style="stroke:#181818;stroke-width:0.5;" width="224" x="289" y="163"/><ellipse cx="304" cy="184.3516" fill="#ADD1B2" rx="11" ry="11" style="stroke:#181818;stroke-width:1.0;"/><path d="M306.7656,180.2266 Q306.9219,180.0078 307.1094,179.8984 Q307.2969,179.7891 307.5156,179.7891 Q307.8906,179.7891 308.125,180.0547 Q308.3594,180.3047 308.3594,180.9141 L308.3594,182.3672 Q308.3594,182.9766 308.125,183.2422 Q307.8906,183.5078 307.5156,183.5078 Q307.1719,183.5078 306.9688,183.3047 Q306.7656,183.1172 306.6563,182.6016 Q306.6094,182.2422 306.4219,182.0547 Q306.0938,181.6797 305.4844,181.4609 Q304.875,181.2422 304.25,181.2422 Q303.4844,181.2422 302.8438,181.5703 Q302.2188,181.8984 301.7188,182.6484 Q301.2344,183.3984 301.2344,184.4297 L301.2344,185.5234 Q301.2344,186.7578 302.125,187.5859 Q303.0156,188.3984 304.6094,188.3984 Q305.5469,188.3984 306.2031,188.1484 Q306.5938,187.9922 307.0156,187.5547 Q307.2813,187.2891 307.4219,187.2109 Q307.5781,187.1328 307.7813,187.1328 Q308.1094,187.1328 308.3594,187.3984 Q308.625,187.6484 308.625,187.9922 Q308.625,188.3359 308.2813,188.7422 Q307.7813,189.3203 306.9844,189.6484 Q305.9063,190.1016 304.6094,190.1016 Q303.0938,190.1016 301.8906,189.4766 Q300.9063,188.9766 300.2188,187.9141 Q299.5313,186.8359 299.5313,185.5547 L299.5313,184.3984 Q299.5313,183.0703 300.1406,181.9297 Q300.7656,180.7734 301.8594,180.1641 Q302.9531,179.5391 304.1875,179.5391 Q304.9219,179.5391 305.5625,179.7109 Q306.2188,179.8672 306.7656,180.2266 Z " fill="#000000"/><text fill="#000000" font-family="sans-serif" font-size="12" font-style="italic" lengthAdjust="spacing" textLength="153" x="337.5" y="180.457">&#171;MedComCorePractitioner&#187;</text><text fill="#000000" font-family="sans-serif" font-size="14" lengthAdjust="spacing" textLength="192" x="318" y="197.627">MedComDocumentPractitioner</text></g><!--class patient--><g id="elem_patient"><rect codeLine="8" fill="#F1F1F1" height="42.7031" id="patient" rx="2.5" ry="2.5" style="stroke:#181818;stroke-width:0.5;" width="196" x="548" y="163"/><ellipse cx="563" cy="184.3516" fill="#ADD1B2" rx="11" ry="11" style="stroke:#181818;stroke-width:1.0;"/><path d="M565.7656,180.2266 Q565.9219,180.0078 566.1094,179.8984 Q566.2969,179.7891 566.5156,179.7891 Q566.8906,179.7891 567.125,180.0547 Q567.3594,180.3047 567.3594,180.9141 L567.3594,182.3672 Q567.3594,182.9766 567.125,183.2422 Q566.8906,183.5078 566.5156,183.5078 Q566.1719,183.5078 565.9688,183.3047 Q565.7656,183.1172 565.6563,182.6016 Q565.6094,182.2422 565.4219,182.0547 Q565.0938,181.6797 564.4844,181.4609 Q563.875,181.2422 563.25,181.2422 Q562.4844,181.2422 561.8438,181.5703 Q561.2188,181.8984 560.7188,182.6484 Q560.2344,183.3984 560.2344,184.4297 L560.2344,185.5234 Q560.2344,186.7578 561.125,187.5859 Q562.0156,188.3984 563.6094,188.3984 Q564.5469,188.3984 565.2031,188.1484 Q565.5938,187.9922 566.0156,187.5547 Q566.2813,187.2891 566.4219,187.2109 Q566.5781,187.1328 566.7813,187.1328 Q567.1094,187.1328 567.3594,187.3984 Q567.625,187.6484 567.625,187.9922 Q567.625,188.3359 567.2813,188.7422 Q566.7813,189.3203 565.9844,189.6484 Q564.9063,190.1016 563.6094,190.1016 Q562.0938,190.1016 560.8906,189.4766 Q559.9063,188.9766 559.2188,187.9141 Q558.5313,186.8359 558.5313,185.5547 L558.5313,184.3984 Q558.5313,183.0703 559.1406,181.9297 Q559.7656,180.7734 560.8594,180.1641 Q561.9531,179.5391 563.1875,179.5391 Q563.9219,179.5391 564.5625,179.7109 Q565.2188,179.8672 565.7656,180.2266 Z " fill="#000000"/><text fill="#000000" font-family="sans-serif" font-size="12" font-style="italic" lengthAdjust="spacing" textLength="95" x="611.5" y="180.457">&#171;DkCorePatient&#187;</text><text fill="#000000" font-family="sans-serif" font-size="14" lengthAdjust="spacing" textLength="164" x="577" y="197.627">MedComDocumentPatient</text></g><!--class condition--><g id="elem_condition"><rect codeLine="9" fill="#F1F1F1" height="42.7031" id="condition" rx="2.5" ry="2.5" style="stroke:#181818;stroke-width:0.5;" width="212" x="532" y="42"/><ellipse cx="547" cy="63.3516" fill="#ADD1B2" rx="11" ry="11" style="stroke:#181818;stroke-width:1.0;"/><path d="M549.7656,59.2266 Q549.9219,59.0078 550.1094,58.8984 Q550.2969,58.7891 550.5156,58.7891 Q550.8906,58.7891 551.125,59.0547 Q551.3594,59.3047 551.3594,59.9141 L551.3594,61.3672 Q551.3594,61.9766 551.125,62.2422 Q550.8906,62.5078 550.5156,62.5078 Q550.1719,62.5078 549.9688,62.3047 Q549.7656,62.1172 549.6563,61.6016 Q549.6094,61.2422 549.4219,61.0547 Q549.0938,60.6797 548.4844,60.4609 Q547.875,60.2422 547.25,60.2422 Q546.4844,60.2422 545.8438,60.5703 Q545.2188,60.8984 544.7188,61.6484 Q544.2344,62.3984 544.2344,63.4297 L544.2344,64.5234 Q544.2344,65.7578 545.125,66.5859 Q546.0156,67.3984 547.6094,67.3984 Q548.5469,67.3984 549.2031,67.1484 Q549.5938,66.9922 550.0156,66.5547 Q550.2813,66.2891 550.4219,66.2109 Q550.5781,66.1328 550.7813,66.1328 Q551.1094,66.1328 551.3594,66.3984 Q551.625,66.6484 551.625,66.9922 Q551.625,67.3359 551.2813,67.7422 Q550.7813,68.3203 549.9844,68.6484 Q548.9063,69.1016 547.6094,69.1016 Q546.0938,69.1016 544.8906,68.4766 Q543.9063,67.9766 543.2188,66.9141 Q542.5313,65.8359 542.5313,64.5547 L542.5313,63.3984 Q542.5313,62.0703 543.1406,60.9297 Q543.7656,59.7734 544.8594,59.1641 Q545.9531,58.5391 547.1875,58.5391 Q547.9219,58.5391 548.5625,58.7109 Q549.2188,58.8672 549.7656,59.2266 Z " fill="#000000"/><text fill="#000000" font-family="sans-serif" font-size="12" font-style="italic" lengthAdjust="spacing" textLength="110" x="596" y="59.457">&#171;DkCoreCondition&#187;</text><text fill="#000000" font-family="sans-serif" font-size="14" lengthAdjust="spacing" textLength="180" x="561" y="76.627">MedComDocumentCondition</text></g><!--link composition to organization--><g id="link_composition_organization"><path codeLine="11" d="M283.85,79.57 C254.18,100.71 200.12,139.23 166.81,162.97 " fill="none" id="composition-organization" style="stroke:#181818;stroke-width:1.0;"/><text fill="#000000" font-family="sans-serif" font-size="13" lengthAdjust="spacing" textLength="92" x="233" y="129.4951">authorInstitution</text></g><!--link composition to practitioner--><g id="link_composition_practitioner"><path codeLine="12" d="M317.16,79.57 C334.21,100.71 365.29,139.23 384.44,162.97 " fill="none" id="composition-practitioner" style="stroke:#181818;stroke-width:1.0;"/><text fill="#000000" font-family="sans-serif" font-size="13" lengthAdjust="spacing" textLength="77" x="360" y="129.4951">authorPerson</text></g><!--link composition to patient--><g id="link_composition_patient"><path codeLine="13" d="M348.19,79.57 C408.76,100.71 519.15,139.23 587.18,162.97 " fill="none" id="composition-patient" style="stroke:#181818;stroke-width:1.0;"/><text fill="#000000" font-family="sans-serif" font-size="13" lengthAdjust="spacing" textLength="42" x="496" y="129.4951">subject</text></g><!--link composition to condition--><g id="link_composition_condition"><path codeLine="14" d="M420.07,63.5 C456.35,63.5 496.24,63.5 531.87,63.5 " fill="none" id="composition-condition" style="stroke:#181818;stroke-width:1.0;"/><text fill="#000000" font-family="sans-serif" font-size="13" lengthAdjust="spacing" textLength="75" x="438.5" y="56.9951">section.entry</text></g><!--link condition to patient--><g id="link_condition_patient"><path codeLine="15" d="M639.39,85.23 C640.85,106.94 643.13,140.84 644.6,162.61 " fill="none" id="condition-patient" style="stroke:#181818;stroke-width:1.0;"/><text fill="#000000" font-family="sans-serif" font-size="13" lengthAdjust="spacing" textLength="42" x="643" y="129.4951">subject</text></g><!--SRC=[VP7FRiCW3CRlF8MLU_O0KzN3qiiEq_eA5Ao4jU28FwgwQUy-3zAKJ4iYeTZc-tvWCnYDW7QCDx1eJ-Y34ADKPzaZD6-eEx87KicYYo_9wGis80FegGHV0lXJ5nd2Npc78mKJ3RdiKOzytVJkU-dCfvnTL1LWjolgZZpMolr-dNZqKiLyAlfC7Al2WbWhDuby9lyAhCJCEPmpe-HRzewShgSoPJDYtcT8eJm61wscgskNKtc6HgOua7zrWU-VCdlDkUX-TXxvtRTCKvUi3-dqWIh-8_Mc7s9RDVIhPYc7Jspsjxldlj_Mu8ahXFZczGC0]--></g></svg>